<svg id="Layer_1" data-name="Layer 1" xmlns="http://www.w3.org/2000/svg" xmlns:xlink="http://www.w3.org/1999/xlink" viewBox="0 0 1000 1000"><defs><style>.cls-1{fill:url(#linear-gradient);}</style><linearGradient id="linear-gradient" x1="296.09" y1="760.31" x2="717.47" y2="338.93" gradientUnits="userSpaceOnUse"><stop offset="0" stop-color="#7efffb"/><stop offset="0.02" stop-color="#7efffb"/><stop offset="0.03" stop-color="#7ffffa"/><stop offset="0.05" stop-color="#7ffff9"/><stop offset="0.06" stop-color="#7ffff8"/><stop offset="0.08" stop-color="#80fff8"/><stop offset="0.09" stop-color="#80fff7"/><stop offset="0.11" stop-color="#81fff6"/><stop offset="0.13" stop-color="#81fff5"/><stop offset="0.14" stop-color="#82fff5"/><stop offset="0.16" stop-color="#82fff4"/><stop offset="0.17" stop-color="#82fff3"/><stop offset="0.19" stop-color="#83fff2"/><stop offset="0.2" stop-color="#83fff2"/><stop offset="0.22" stop-color="#84fff1"/><stop offset="0.23" stop-color="#84fff0"/><stop offset="0.25" stop-color="#85ffef"/><stop offset="0.27" stop-color="#85ffef"/><stop offset="0.28" stop-color="#85ffee"/><stop offset="0.3" stop-color="#86ffed"/><stop offset="0.31" stop-color="#86ffec"/><stop offset="0.33" stop-color="#87ffec"/><stop offset="0.34" stop-color="#87ffeb"/><stop offset="0.36" stop-color="#87ffea"/><stop offset="0.38" stop-color="#88ffe9"/><stop offset="0.39" stop-color="#88ffe9"/><stop offset="0.41" stop-color="#89ffe8"/><stop offset="0.42" stop-color="#89ffe7"/><stop offset="0.44" stop-color="#8affe6"/><stop offset="0.45" stop-color="#8affe6"/><stop offset="0.47" stop-color="#8affe5"/><stop offset="0.48" stop-color="#8bffe4"/><stop offset="0.5" stop-color="#8bffe3"/><stop offset="0.52" stop-color="#8cffe3"/><stop offset="0.53" stop-color="#8cffe2"/><stop offset="0.55" stop-color="#8dffe1"/><stop offset="0.56" stop-color="#8dffe0"/><stop offset="0.58" stop-color="#8dffe0"/><stop offset="0.59" stop-color="#8effdf"/><stop offset="0.61" stop-color="#8effde"/><stop offset="0.63" stop-color="#8fffdd"/><stop offset="0.64" stop-color="#8fffdd"/><stop offset="0.66" stop-color="#8fffdc"/><stop offset="0.67" stop-color="#90ffdb"/><stop offset="0.69" stop-color="#90ffda"/><stop offset="0.7" stop-color="#91ffda"/><stop offset="0.72" stop-color="#91ffd9"/><stop offset="0.73" stop-color="#92ffd8"/><stop offset="0.75" stop-color="#92ffd7"/><stop offset="0.77" stop-color="#92ffd7"/><stop offset="0.78" stop-color="#93ffd6"/><stop offset="0.8" stop-color="#93ffd5"/><stop offset="0.81" stop-color="#94ffd4"/><stop offset="0.83" stop-color="#94ffd4"/><stop offset="0.84" stop-color="#95ffd3"/><stop offset="0.86" stop-color="#95ffd2"/><stop offset="0.88" stop-color="#95ffd1"/><stop offset="0.89" stop-color="#96ffd1"/><stop offset="0.91" stop-color="#96ffd0"/><stop offset="0.92" stop-color="#97ffcf"/><stop offset="0.94" stop-color="#97ffce"/><stop offset="0.95" stop-color="#98ffce"/><stop offset="0.97" stop-color="#98ffcd"/><stop offset="0.98" stop-color="#98ffcc"/><stop offset="1" stop-color="#99ffcb"/></linearGradient></defs><path class="cls-1" d="M501.13,187.76a168.42,168.42,0,0,1,39.08,4.58A163.25,163.25,0,0,1,577,205.86a108.45,108.45,0,0,1,31.06,23.84,55.68,55.68,0,0,1,14.69,35.43v81.21q-2.31,22.86-25.15,24.77a26.73,26.73,0,0,1-18.5-7,22.88,22.88,0,0,1-7.81-17.73V277a28.78,28.78,0,0,0-9-19.65A65.24,65.24,0,0,0,544,245a100.42,100.42,0,0,0-21-6.86,106.05,106.05,0,0,0-43.84,0A100.35,100.35,0,0,0,458.26,245a65.38,65.38,0,0,0-18.32,12.37A28.7,28.7,0,0,0,431,277v69.37q-1.92,22.86-24.8,24.77a26.67,26.67,0,0,1-18.47-7,22.88,22.88,0,0,1-7.82-17.73V265.13A56.11,56.11,0,0,1,394.4,229.7a106.07,106.07,0,0,1,30.88-23.84,163.5,163.5,0,0,1,36.79-13.52A168.32,168.32,0,0,1,501.13,187.76ZM381.21,524.86a26,26,0,0,1,25.54-25.55h154a24.32,24.32,0,0,0,12-3.41,21.38,21.38,0,0,0,7-6.88,15.12,15.12,0,0,0,0-16,21.22,21.22,0,0,0-7-6.85,24.22,24.22,0,0,0-12-3.44H407.5A26,26,0,0,1,382,437.19a25.4,25.4,0,0,1,25.54-25.54H559.21a25.8,25.8,0,0,0,12-3.25,19.91,19.91,0,0,0,7.06-6.67,15.28,15.28,0,0,0,2.29-8,14.65,14.65,0,0,0-2.29-7.62,19.91,19.91,0,0,0-7.06-6.67,25.45,25.45,0,0,0-12-3.25H406a23.74,23.74,0,0,1-17.92-7.63A22.48,22.48,0,0,1,380.44,351a23.6,23.6,0,0,1,7.44-17.54,25,25,0,0,1,18.1-7.25h151q26.65.4,44,11.65T625.73,364a65.88,65.88,0,0,1,7.44,29.73,62.41,62.41,0,0,1-7.63,29.36,53.35,53.35,0,0,1-8.77,12.56A61.87,61.87,0,0,1,634.69,481q0,14.87-7.63,29.92t-24.77,26.69Q585.15,549.26,558.46,550h-2.29a28.43,28.43,0,0,1-4.59.38H406.75a25.37,25.37,0,0,1-25.54-25.54Zm9.21,71q7.24-18.28,24.58-33t44-15.06H602.36A26.05,26.05,0,0,1,627.9,573.4a25.37,25.37,0,0,1-25.54,25.52H457.5q-7.23,0-12.58,5.92a41.06,41.06,0,0,0-8.19,13.91A45.24,45.24,0,0,0,433.88,634v66.71q-2.31,22.86-25.17,24.77a26.7,26.7,0,0,1-18.48-7,22.88,22.88,0,0,1-7.81-17.73V634.38h.37A100.89,100.89,0,0,1,390.42,595.88ZM579.29,667q2.3-22.87,25.17-24.79a26.64,26.64,0,0,1,18.48,7.06A22.85,22.85,0,0,1,630.75,667V848.42a24.37,24.37,0,0,1-8,17.73,26,26,0,0,1-18.29,7.05H444.36q-33.56-1.12-50.71-15.8t-24.77-33.16a97.72,97.72,0,0,1-7.63-37.57,101.67,101.67,0,0,1,7.44-38.29q7.44-18.5,24.77-33.16t44-15.07h96a26,26,0,0,1,25.54,25.55,25.35,25.35,0,0,1-25.54,25.52H436a16.46,16.46,0,0,0-12.58,5.91,36.87,36.87,0,0,0-7.82,13.73,51.22,51.22,0,0,0-2.45,15.44,52.36,52.36,0,0,0,2.45,15.81,36.8,36.8,0,0,0,7.82,13.73A17.85,17.85,0,0,0,436,822.13H569.38q9.92-.39,9.91-9.91Z"/></svg>